<svg width="136" height="28" viewBox="0 0 136 28" fill="none" xmlns="http://www.w3.org/2000/svg">
<g clip-path="url(#clip0_163_269)">
<mask id="mask0_163_269" style="mask-type:luminance" maskUnits="userSpaceOnUse" x="0" y="0" width="136" height="28">
<path d="M136 0H0V28H136V0Z" fill="white"/>
</mask>
<g mask="url(#mask0_163_269)">
<path d="M54.2746 9.70298C54.1937 7.36411 52.0573 7.03968 50.84 7.00472L50.3356 7.00332C50.3006 7.00472 50.2677 7.00542 50.2383 7.00542L50.2431 18.4194H48.0546C47.4974 18.3872 46.2294 18.1397 46.1814 16.5763L46.1698 9.6897C46.0841 7.4704 44.1444 7.07254 42.9107 7.01171H42.1732L42.1759 18.4278L41.9861 18.404C40.8661 18.2383 39.4481 17.7034 38.8278 16.8021C38.5461 16.3938 38.3363 15.9281 38.1986 15.403C38.0642 14.8897 37.9936 14.3276 37.9882 13.7081L37.9861 9.6911C37.8984 7.36482 35.7709 7.03968 34.5564 7.00472L34.0451 7.00332C33.9909 7.00542 33.9429 7.00542 33.9025 7.00682L33.8895 14.2087C33.8861 14.9597 33.9717 15.6652 34.141 16.3252C34.359 17.1517 34.7099 17.8866 35.1965 18.5292C36.0834 19.6871 37.3555 20.4988 39.0183 20.9624C39.8751 21.2022 40.6276 21.3218 41.2753 21.3218H54.2924L54.2746 9.70298ZM9.56884 21.4749C4.56064 14.6415 3.64289 13.5885 2.80876 12.4131C2.80876 12.4131 6.50031 11.4601 9.33923 14.931C9.6504 15.2799 12.3358 18.6529 13.6607 20.2157C18.5846 26.0114 21.7326 25.38 24.1877 22.2832C23.8025 22.407 23.4132 22.486 23.0143 22.5126C20.6846 22.6594 18.2419 21.2008 15.455 17.932L12.8341 14.8618C9.2981 10.7217 6.88962 8.45978 6.88962 8.45978C6.91635 8.43321 11.2076 7.0257 14.3515 10.4211C17.0876 13.3746 19.1658 15.6519 19.1658 15.6519C21.5331 18.1327 23.2932 19.2235 24.6949 18.8962C25.7202 18.655 26.3679 17.6656 26.799 16.6637C26.4248 16.8545 26.0245 16.972 25.5859 16.9804C24.5489 16.9986 23.4475 16.3952 22.2226 15.1387C18.6853 11.5063 14.6421 7.0201 14.6421 7.0201C14.6421 7.0201 18.6627 6.32998 21.2281 8.64997C23.9649 11.1245 25.1657 13.2102 27.3576 13.4773C27.0862 5.98527 21.0705 0 13.684 0C6.12814 0 0 6.26705 0 13.9997C0 21.7343 6.12814 28.0007 13.684 28.0007C15.5119 28.0007 16.8354 27.6986 18.429 27.0316C16.187 26.6953 13.527 26.8743 9.56884 21.4749ZM135.874 10.677C135.966 11.0378 136.006 11.4328 135.999 11.8684C136.005 13.9668 134.921 15.4582 132.752 16.3448C131.598 16.8238 130.158 17.0636 129.125 17.0636H125.499L125.496 21.3169L124.597 21.3183C123.359 21.2554 121.431 20.8394 121.354 18.6194L121.367 7.05436H129.254C129.903 7.05436 130.979 7.15365 131.79 7.34663C133.365 7.7368 134.513 8.39615 135.226 9.32611C135.528 9.73165 135.746 10.1819 135.874 10.677ZM128.948 14.1926C129.669 14.1926 131.903 14.0696 131.903 12.1628C131.903 11.9384 131.881 11.7328 131.825 11.5447C131.742 11.2811 131.611 11.049 131.428 10.8497C130.89 10.2596 130.086 9.96589 128.747 9.96589H125.503L125.498 14.1919L128.948 14.1926ZM114.775 7.01241H113.898L113.883 18.4229H110.912C109.514 18.3774 108.478 17.5265 108.01 16.9105C107.675 16.4735 107.429 15.9546 107.276 15.354C107.145 14.8541 107.085 14.2996 107.089 13.6815L107.087 9.70159C107.009 7.5585 105.209 7.1075 103.973 7.0215L103.002 7.025L102.99 14.2101C102.99 14.9764 103.073 15.682 103.24 16.3266C103.458 17.1685 103.809 17.9034 104.291 18.5313C105.164 19.6871 106.429 20.4995 108.093 20.9631C108.947 21.2029 109.699 21.3225 110.349 21.3225H118.029L118.031 9.61139C117.902 7.46131 115.993 7.07184 114.775 7.01241ZM93.5602 18.4404H89.1723C85.6911 18.4404 85.6486 15.5743 85.6486 15.5743H92.7432C94.8638 15.454 95.0112 13.3836 95.0427 12.7865V12.7082H85.6192C85.6192 12.7082 86.0194 10.033 89.1366 9.89177H93.6514C95.7658 9.76871 95.9145 7.70114 95.9461 7.10401V7.01101H88.7281C87.4841 7.01101 86.2312 7.33335 84.9687 7.98012C82.4951 9.21214 81.2594 11.3391 81.2662 14.3569C81.26 15.0932 81.3437 15.7847 81.5116 16.4308C81.7138 17.2139 82.0462 17.9124 82.5054 18.5257C83.3759 19.6696 84.6548 20.48 86.3436 20.961C87.2107 21.2022 87.9735 21.3211 88.6363 21.3211H95.9392C95.9125 20.8862 95.8816 18.5194 93.5602 18.4404ZM78.4568 14.9792C77.8344 14.1577 76.7974 13.3487 75.3478 13.018C74.6096 12.8404 74.0627 12.7641 73.3293 12.7509H71.3321C71.1251 12.7509 70.9057 12.7474 70.6851 12.7341C69.378 12.7271 68.1107 12.4761 68.1107 11.3161C68.1107 10.0757 69.5761 9.89667 70.7481 9.89667H76.2107C78.4972 9.83793 78.5897 7.57947 78.6178 7.05436C78.2258 7.05087 71.5267 7.00052 70.3677 7.05436C69.1751 7.1096 67.7714 7.30258 66.7742 7.70603C64.8386 8.46677 63.9846 9.91694 63.9846 11.4035C63.9846 13.127 65.2457 15.5456 69.8729 15.6281H72.3327C73.5055 15.6281 74.9715 15.8085 74.9715 17.0475C74.9715 18.2271 73.661 18.4669 72.3327 18.4669H66.8215C64.5535 18.5508 64.4801 20.8247 64.4541 21.3225L72.8845 21.3211C73.8557 21.291 75.3163 21.1148 76.3122 20.7121C78.2614 19.9493 79.0887 18.6753 79.0949 16.9734C79.0832 16.6308 79.04 16.3168 78.9646 16.033C78.8612 15.6442 78.6932 15.2946 78.4568 14.9792ZM57.1752 7.01241H58.0491C59.2862 7.07324 61.2375 7.47319 61.3095 9.71487L61.3129 21.2959C60.5967 21.3127 57.2848 21.519 57.1834 18.5977L57.1752 7.01241Z" fill="white"/>
</g>
</g>
<defs>
<clipPath id="clip0_163_269">
<rect width="136" height="28" fill="white"/>
</clipPath>
</defs>
</svg>
